<?xml version="1.0" standalone="no"?>
<!DOCTYPE svg PUBLIC "-//W3C//DTD SVG 20010904//EN"
 "http://www.w3.org/TR/2001/REC-SVG-20010904/DTD/svg10.dtd">
<svg version="1.0" xmlns="http://www.w3.org/2000/svg"
 width="500.000000pt" height="500.000000pt" viewBox="0 0 500.000000 500.000000"
 preserveAspectRatio="xMidYMid meet">
<metadata>
Created by potrace 1.14, written by Peter Selinger 2001-2017
</metadata>
<g transform="translate(0.000000,500.000000) scale(0.100000,-0.100000)"
fill="#000000" stroke="none">
<path d="M3379 4436 c-2 -2 -29 -6 -59 -9 -118 -13 -261 -63 -380 -133 -227
-133 -402 -365 -471 -624 -30 -114 -41 -286 -25 -385 4 -22 9 -55 12 -74 l6
-34 -89 7 c-119 9 -147 12 -228 26 -38 7 -83 14 -100 17 -62 10 -223 52 -320
83 -351 113 -673 287 -960 519 -95 77 -305 282 -368 358 l-51 63 -18 -27 c-28
-43 -85 -200 -103 -285 -18 -84 -24 -237 -12 -334 31 -256 174 -511 377 -672
25 -20 50 -40 55 -45 14 -13 -95 -2 -185 18 -73 17 -215 69 -234 86 -22 20
-34 8 -30 -28 12 -136 18 -175 40 -250 51 -177 131 -313 263 -444 73 -74 213
-179 237 -179 4 0 15 -6 23 -13 18 -15 130 -58 206 -80 l50 -14 -60 -14 c-66
-15 -322 -19 -369 -6 -27 8 -28 7 -22 -20 9 -35 90 -201 114 -232 128 -170
245 -272 399 -350 64 -32 186 -76 237 -85 60 -11 122 -19 153 -21 18 0 35 -3
38 -6 8 -9 -232 -163 -330 -212 -146 -73 -314 -136 -435 -163 -19 -4 -37 -8
-40 -9 -3 -1 -18 -4 -35 -8 -16 -4 -45 -9 -62 -12 -18 -3 -45 -7 -60 -9 -126
-20 -343 -28 -461 -16 -39 4 -61 2 -59 -4 3 -9 63 -48 97 -63 8 -4 17 -10 20
-13 11 -14 300 -150 395 -185 136 -51 323 -107 400 -120 30 -5 67 -12 95 -19
34 -8 76 -15 130 -21 25 -3 54 -8 65 -10 39 -8 221 -18 335 -18 114 -1 358 11
369 17 3 2 35 7 71 10 122 12 348 63 501 112 299 96 557 229 814 420 174 129
364 310 487 464 33 41 67 84 77 95 112 136 289 445 383 670 48 115 125 341
143 421 49 221 66 322 81 489 4 44 8 141 9 215 1 74 3 138 4 142 0 3 31 30 69
59 99 77 289 271 365 374 36 49 64 91 62 93 -1 2 -23 -5 -47 -16 -41 -19 -211
-76 -259 -87 -98 -22 -259 -51 -259 -46 0 3 19 18 43 33 144 91 292 276 367
459 30 72 29 79 -7 54 -54 -38 -303 -149 -383 -171 -8 -2 -64 -17 -125 -33
l-110 -28 -45 43 c-137 131 -305 219 -495 260 -62 14 -287 28 -296 20z"/>
</g>
</svg>
